<svg viewBox="-43 0 512 512" xmlns="http://www.w3.org/2000/svg"><path d="m246.3125 320.644531h57.132812c67.1875 0 121.65625-54.464843 121.65625-121.652343v-43.277344c0-23.464844-19.023437-42.488282-42.492187-42.488282-23.464844 0-42.488281 19.019532-42.488281 42.488282v43.277344c0 20.253906-16.421875 36.671874-36.675782 36.671874h-57.136718v84.980469zm0 0" fill="#00884f"/><path d="m178.789062 320.644531h-57.136718c-67.1875 0-121.652344-54.464843-121.652344-121.652343v-43.277344c0-23.464844 19.023438-42.488282 42.488281-42.488282 23.46875 0 42.492188 19.019532 42.492188 42.488282v43.277344c0 20.253906 16.417969 36.671874 36.671875 36.671874h57.136718zm0 0" fill="#00cc76"/><path d="m276.335938 63.785156c0-35.226562-28.558594-63.785156-63.785157-63.785156l-20.015625 256 20.015625 256h63.785157zm0 0" fill="#00cc76"/><path d="m212.550781 0c-35.230469 0-63.785156 28.558594-63.785156 63.785156v448.214844h63.785156zm0 0" fill="#b0eb95"/></svg>