<?xml version="1.0" encoding="utf-8"?>
<!-- Generator: Adobe Illustrator 18.1.0, SVG Export Plug-In . SVG Version: 6.00 Build 0)  -->
<svg version="1.1" xmlns="http://www.w3.org/2000/svg" xmlns:xlink="http://www.w3.org/1999/xlink" x="0px" y="0px"
	 viewBox="0 0 400 370" enable-background="new 0 0 400 370" xml:space="preserve">
<g id="Layer_1">
</g>
<g id="Layer_4">
</g>
<g id="Layer_3">
	<circle fill="#FCFCFE" cx="68.5" cy="72.2" r="10"/>
	<path fill="#FCFCFE" d="M69.3,73.2c-3.2-1.4,13.3,3.1,14.1,5.4c1.3,3.8-5.7,11.5-5.1,7.3C79.1,80.4,85.7,80.5,69.3,73.2z"/>
	<path fill="#252733" d="M73.8,93.8c0,0-26.4,29-23,33.3c3.4,4.3,300.4,11.3,300.5,2.5c0.1-8.8-23.5-36.7-25.4-37.7
		c-6.8-3.6-71.1-14.6-111.3-19.2C174.4,68.1,88.1,76.7,73.8,93.8z"/>
	<path fill="#991414" d="M100.3,65.7c18.2-2.2,12.7,12.3,48.3,5.9c12.3-2.2,21.3,0,50.8,0c31.4,0,43.7,0.9,55.8,1.9
		c28.6,2.5,19.9-7.8,36.4-7.8c9.1,0,30.3,20.1,29.1,21.9c-2.3,3.4-3-5.7-124.9-7.2c-109.7-1.3-116,12.3-118.1,9.9
		C75.4,87.6,94.7,66.4,100.3,65.7z"/>
	<path fill="#E2231A" d="M199.4,71.6c58.2,0.1,99.9,12.1,95.6,11.6c-37.4-4.1-122.5-2.8-198.2,1.2C93.5,84.6,137.2,71.5,199.4,71.6z
		"/>
	<path fill="#E2231A" d="M80.5,82.4c-0.3,1.5-25.5,31.8-37.3,45.9c-3.2,3.8-1.2,2.9-2.5,4.1c-1.1,1,47.7-7.3,47.7-7.3
		c-51.8,7.4-18.9-26.4-4.6-28C84.5,97,80.5,82.4,80.5,82.4z"/>
	<path fill="#E2231A" d="M320.1,84.3c0.3,1.5,26.9,30.7,39.3,44.2c3.4,3.7,2.3,5.4,3.7,6.6c1.1,1-45.3-10.8-45.3-10.8
		c50.6,7,14-25.5-0.3-26.4C316.6,97.8,320.1,84.3,320.1,84.3z"/>
	<path fill="#E2231A" d="M78.1,91.8c-11.2,12.3,98.4,15.8,123.1,15.8c19.2,0,134.6-5.2,121.1-14.8C308.7,83.3,220.4,82,200.4,82.3
		C180.4,82.5,89.4,79.4,78.1,91.8z"/>
	<path fill="none" stroke="#FFFFFF" stroke-width="3.1568" stroke-miterlimit="10" d="M100.1,32.6c11.9-1.5,139.2-3.8,195.7-0.5
		c1,0.1,23.6,55.5,24.7,57.4c0.8,1.3-4.2,0.4-6.9-0.7c-25.2-10.3-203.4-12.1-230,0.7c-5.9,2.8-5.6,2.4-5.6,2.4
		C79.9,87.7,99.3,32.7,100.1,32.6z"/>
	<path fill="none" stroke="#333E48" stroke-width="1.054" stroke-miterlimit="10" d="M101.7,33.7L80.8,88.4
		c30.2-13.3,217.8-12.1,236.8,0c0.9,0.6-22.1-54.5-23.1-54.7C278.2,31.2,126.6,31.4,101.7,33.7z"/>
	<circle fill="#FCFCFE" cx="195.8" cy="93.8" r="7"/>
	<circle fill="#A4A9AD" cx="195.8" cy="94" r="5"/>
	<circle fill="#FCFCFE" cx="210.6" cy="88.9" r="4"/>
	<circle fill="#A4A9AD" cx="210.6" cy="89" r="2.8"/>
	<circle fill="#FCFCFE" cx="210.6" cy="99.8" r="4"/>
	<circle fill="#A4A9AD" cx="210.6" cy="99.9" r="2.8"/>
	<circle fill="#FCFCFE" cx="177.9" cy="94" r="7"/>
	<circle fill="#A4A9AD" cx="177.9" cy="94.2" r="5"/>
	<circle fill="#A4A9AD" cx="68.3" cy="72.3" r="9"/>
	<path fill="#3F4144" d="M225.6,136c0.4-38,85.5-44.9,85.5-2C311.1,144.7,225.5,145.3,225.6,136z"/>
	<path fill="#252733" d="M230.8,134.7c-0.1-23.2,71.4-35,75-0.2C306.9,144.4,230.9,143.4,230.8,134.7z"/>
	<path fill="#F3AF75" d="M74.3,73c0.3-0.1,0.6-0.1,0.9,0.2c0.5,0.7-0.4,3.1-1.2,3.1C73.8,76.4,74.3,73,74.3,73z"/>
	<path fill="#DE7C48" d="M74.6,73.3c0.7,0,0.5,1,0.4,1.4c0,0-0.1-1.6-0.5-0.7C74.4,74.4,74.6,73.3,74.6,73.3z"/>
	<path fill="#F09960" d="M63.5,72.7c-0.1,0.1-0.9,0.4-0.8,1.8c0.1,1.2,1.1,2.1,1.4,2.2c0.1,0.1,0-1.5-0.2-2.1
		C63.8,74.1,63.5,72.7,63.5,72.7z"/>
	<path fill="#F3AF75" d="M70.8,67.4c-0.8-0.1-1-0.2-2.3-0.1c-1.4,0.1-2.8,0.3-3.5,0.7c-0.7,0.3-0.9,0.9-1,1.4
		c-0.1,0.5-0.4,2-0.5,2.5c0,0.5,0.4,7,0.7,7.4c1,1.4,3.1,2,4.5,2c1.5,0,3.8-0.8,5-2c0.4-0.4,0.4-3.3,0.5-3.6
		c0.1-0.4,0.5-3.5,0.5-3.8c0.1-0.3,0.7-2.3-0.3-3C73.3,68.2,70.9,67.4,70.8,67.4z"/>
	<path fill="#F09D60" d="M70.4,67.4C70,67.7,68,70,68,71.1c0,1,0.5,1.2,0.5,1.7c-0.1,0.5-0.7,3.2-0.6,3.5c0.1,0.3,0.5,0.5,0.9,0.5
		c0.4,0,1-0.2,1-0.2S69.4,76.7,69,77c-0.4,0.2,1.2,4.3-0.3,4.3c-2.3,0-3.8-1.1-4.4-1.8c-0.5-0.6-0.6-3.1-0.6-3.9
		c0-0.4-0.1-1.6-0.2-2.1c-0.1-0.5,0-1.3,0-2c0-0.8-1.2-2.1,0.2-2.7c1.5-0.6,1.2-1.2,2.5-1.1C67.5,67.8,70.4,67.4,70.4,67.4z"/>
	<path fill="#3F1B0F" d="M69,72.2c0.3,0,0.5,0.2,0.6,0.2c0.1,0,0.8-0.3,1.4-0.3c0.3,0,0.8-0.2,2,0.1c0.4,0.1,1,0.4,1.1,0.5
		c0.1,0.1,0.4,0.5,0.4,0.5c0,0.1-0.3,0.5-0.4,0.7c-0.1,0.2-0.6,0.6-0.8,0.7c-0.2,0.1-0.6,0.3-1.2,0.3c-0.5,0-1.1-0.2-1.4-0.4
		c-0.4-0.2-0.6-0.6-0.7-0.8c-0.1-0.3-0.2-0.9-0.2-1c0-0.3-1-0.4-1.2-0.1c-0.1,0.1-0.1,0.5-0.2,0.6c-0.1,0.2-0.2,0.5-0.5,0.8
		c-0.4,0.4-1,0.5-1.3,0.5c-0.4,0-0.9-0.1-1.2-0.2c-0.2,0-0.5-0.2-0.8-0.5c-0.1-0.1-0.5-0.6-0.6-0.7c-0.2-0.3-0.3-0.6-0.3-0.6
		c0-0.1,0.6-0.5,1-0.6c0.5-0.2,0.8-0.2,1.2-0.3c0.6,0,1.7,0.2,2,0.3c0.2,0.1,0.7,0.2,0.8,0.3C68.5,72.3,68.8,72.2,69,72.2z
		 M68.2,72.7c-0.5-0.5-3.8-1-4.1,0.6c0,0,0.1,0.2,0.3,0.4c0.4,0.3,1.2,0.7,1.9,0.6c0.4,0,1.2-0.2,1.7-0.9
		C68.2,73.3,68.2,72.7,68.2,72.7z M70,73.6c0.4,0.8,1.1,1,1.6,1.1c0.7,0.1,1.5-0.1,1.9-0.4c0.3-0.2,0.4-0.4,0.4-0.4
		c-0.1-1.6-3.4-1.5-4-1.1C69.8,72.8,69.8,73.4,70,73.6z"/>
	<path fill="#FCFCFC" d="M65,73.2c0.1,0.1,0.4,0.4,1.2,0.4c0.8,0.1,1.3-0.1,1.3-0.2c0,0-0.4-0.7-1.1-0.7C65.7,72.7,65,73.2,65,73.2z
		"/>
	<path fill="#FCFCFC" d="M70.7,73.7c0.1,0.1,0.5,0.3,1.2,0.3c0.8,0,1.3-0.3,1.3-0.3c0,0-0.5-0.6-1.2-0.6
		C71.4,73.1,70.7,73.7,70.7,73.7z"/>
	<path fill="#4B2813" d="M64.9,73.2c0,0,0.6-0.8,1.5-0.7c0.9,0.1,1.2,1,1.2,1s-0.5-0.6-1.2-0.6C65.6,72.8,64.9,73.2,64.9,73.2z"/>
	<circle fill="#4B2813" cx="66.7" cy="73.1" r="0.5"/>
	<circle fill="#4B2813" cx="72.4" cy="73.5" r="0.5"/>
	<path fill="#4B2813" d="M73.3,73.7c0,0-0.1-0.8-1.2-0.9c-1.1-0.1-1.4,0.8-1.4,0.8s0.9-0.6,1.4-0.5C72.7,73.2,73.3,73.7,73.3,73.7z"
		/>
	<path fill="#FCFCFC" d="M73.3,73.8c-0.1,0.1-0.5,0.3-1.2,0.3c-0.8,0-1.3-0.3-1.3-0.4c0,0,0.5-0.6,1.2-0.6
		C72.6,73.2,73.3,73.8,73.3,73.8z"/>
	<path fill="#FCFCFC" d="M67.5,73.5c-0.1,0.1-0.5,0.3-1.3,0.2c-0.8-0.1-1.2-0.4-1.3-0.5c0,0,0.5-0.6,1.2-0.5
		C66.9,72.8,67.5,73.5,67.5,73.5z"/>
	<path fill="#4B2813" d="M73.3,73.8c0,0-0.5-0.9-1.4-0.9c-0.9,0-1.3,0.8-1.3,0.8s0.6-0.5,1.3-0.5C72.7,73.3,73.3,73.8,73.3,73.8z"/>
	<circle fill="#4B2813" cx="71.6" cy="73.5" r="0.5"/>
	<circle fill="#4B2813" cx="65.8" cy="73.1" r="0.5"/>
	<path fill="#4B2813" d="M65,73.2c0,0,0.2-0.8,1.3-0.7c1.1,0.1,1.3,0.9,1.3,0.9s-0.8-0.7-1.4-0.7C65.6,72.8,65,73.2,65,73.2z"/>
	<path fill="#DE7C48" d="M68.4,72.9c0,0-1,3.5-1,3.7c0.1,0.2,1.4,0.6,1.6,0.6c0,0,0.7-0.7,0.6-0.7c0,0-0.4,0.3-0.7,0.4
		c-0.1,0-0.9-0.2-1-0.3c-0.2-0.1-0.2-0.3-0.2-0.4C67.7,76.1,68.4,72.9,68.4,72.9z"/>
	<path fill="#D06D42" d="M68.5,72.5c0,0-0.7,3.5-0.7,3.6c0,0.3,0.4,0.6,1,0.6c0.2,0,1-0.3,1-0.3c-0.3,0.2-0.8,0.5-0.9,0.6
		c0,0-0.6-0.2-0.9-0.3c-0.2,0-0.5-0.2-0.5-0.2c0-0.1,0.8-3.8,0.8-3.8L68.5,72.5z"/>
	<path fill="#DE7C48" d="M64,73.7c0,0,4.2-0.2,4.1,0c-0.2,0.4-0.5,1.2-1.9,1.2c-1,0-2-0.6-2.2-1C64,73.8,64,73.7,64,73.7z"/>
	<path fill="#DE7C48" d="M69.4,72.5c0,0,4.7,1.1,4.7,1.2c-0.2,0.6-0.8,1.3-2.2,1.4C70.8,75.2,69.3,74.4,69.4,72.5z"/>
	<path d="M62.9,68.5c0,0.1,0.1,2.7,0.3,3.3c0.2,0.5,0.5,1.4,0.5,2.6c0,0.2,0.3,0.2,0.4-0.1c0-0.3-0.2-2.1-0.1-2.3
		c0.1-0.2,0.4-0.7,0.4-1.1c0-0.5,0.1-2.3,0.6-2.5c1.1-0.6,3.6,0.1,4.2,0c1.5-0.2,2.3-0.8,2.4-0.7c0.1,0.1,1.9,0.4,2.3,2.1
		c0.4,1.5,0.3,4.1,0.2,4.7c-0.1,0.3,0.4,0.2,0.4,0c0.2-1.6,0.6-4.4,0.7-5.2c0.2-2.1-2.8-3.8-5.7-4.3c-2-0.3-4.3,0.4-4.6,1.3
		C64.8,66.4,62.9,66.8,62.9,68.5z"/>
	<path d="M63.5,71c0,1.2,0.5,3.2,0.5,3.1c0-0.2-0.1-1.1-0.1-1.8c0-0.3,0.3-0.9,0.4-1.2c0.1-1,0.3-2.3,0.6-2.6
		c0.7-0.7,4.1,0.4,4.1,0.4s3.1-1.1,3.9-0.3c0.8,0.7,0.9,1.8,0.9,2.9c0,0.2,0.2,0.7,0.2,1.2c0,0.6,0,1.5,0,1.5s0.3-2.1,0.3-3.1
		c0-1.1,0.2-2-1.6-3.4c-0.4-0.3-1.5,0.1-2.5,0.4c-1.2,0.4-0.3-0.6-0.4-0.6c-1.2,0.8-2,0.7-2.6,0.7c-0.5,0,0.2-0.8,0.1-0.8
		c-1,0.5-2.2,0.6-2.4,0.7C64,68.5,63.5,70.1,63.5,71z"/>
	<path fill="#565454" d="M63.9,72.7c0.3-0.2,1.4-0.6,1.8-0.6c0.5,0,1.5,0.2,1.8,0.2c0.3,0,0.6,0.4,0.6,0.4V73L68,73.3l-0.1,0.5
		l-0.6,0.4l-0.6,0.2h-0.8h-0.8l-0.6-0.3l-0.4-0.3c0,0-0.3-0.4-0.2-0.5C63.8,73.2,63.9,72.7,63.9,72.7z"/>
	<path fill="#DBDDDD" d="M66.3,72.3c0,0-1.4,1.9-1.4,1.9c0,0,0.8,0.3,0.8,0.2c0,0,1.5-2,1.5-2C67.1,72.4,66.3,72.3,66.3,72.3z"/>
	<path fill="#565454" d="M69.7,72.7c0.3-0.2,1.6-0.4,2.1-0.4c0.5,0,1.5,0.2,1.8,0.2c0.3,0,0.6,0.4,0.6,0.4v0.3l-0.1,0.3l-0.1,0.5
		l-0.6,0.4l-0.6,0.2L72,74.9l-0.8-0.1l-0.6-0.3l-0.4-0.3c0,0-0.3-0.4-0.2-0.5C69.9,73.4,69.7,72.7,69.7,72.7z"/>
	<path fill="#DBDDDD" d="M72.4,72.7c0,0-1.4,1.9-1.4,1.9c0,0,0.8,0.2,0.8,0.2c0,0,1.3-1.8,1.3-1.9C73.1,72.9,72.5,72.6,72.4,72.7z"
		/>
	<path d="M69,72.2c0.4,0,0.5,0.2,0.6,0.2c0.1,0,0.8-0.3,1.4-0.3c0.3,0,0.8-0.2,2,0.1c0.4,0.1,1,0.4,1.1,0.5c0.2,0.1,0.4,0.5,0.4,0.5
		c0,0.1-0.3,0.5-0.4,0.7c-0.1,0.2-0.7,0.6-0.9,0.7c-0.2,0.1-0.6,0.3-1.3,0.3c-1.2,0-2-0.6-2.2-1.2c-0.1-0.3-0.2-0.9-0.2-1
		c0-0.3-1.1-0.4-1.2-0.1c-0.1,0.1-0.1,0.5-0.2,0.6c-0.1,0.2-0.2,0.5-0.5,0.8c-0.4,0.4-1.1,0.5-1.3,0.5c-0.4,0-0.9,0-1.3-0.2
		c-0.2-0.1-0.5-0.2-0.8-0.5c-0.1-0.1-0.5-0.6-0.6-0.7c-0.2-0.3-0.3-0.7-0.3-0.7c0-0.1,0.6-0.5,1-0.6c0.5-0.2,0.8-0.2,1.2-0.3
		c0.6-0.1,1.8,0.2,2,0.3c0.2,0.1,0.7,0.2,0.8,0.3C68.5,72.3,68.8,72.2,69,72.2z M68.2,72.8c-0.5-0.5-3.9-1-4.2,0.7
		c0,0,0.1,0.2,0.4,0.4c0.4,0.3,1.2,0.7,1.9,0.6c0.4-0.1,1.2-0.2,1.7-0.9C68.1,73.3,68.2,72.8,68.2,72.8z M70,73.6
		c0.4,0.8,1.2,1,1.6,1.1c0.7,0.2,1.6-0.1,2-0.4c0.3-0.2,0.4-0.4,0.4-0.4c-0.1-1.7-3.5-1.5-4.1-1.1C69.8,72.8,69.8,73.4,70,73.6z"/>
	<path fill="#DE7C48" d="M66.7,77.9c1.2,0.4,1.8,0.3,2.4,0.3c1.2,0,1.2-0.1,2-0.3c0.4-0.1-0.3,0.1-1.8,0.1c-0.1,0-0.2,0.1-0.2,0.1
		c-0.1,0-0.2-0.1-0.3-0.1C67.3,78,66.4,77.8,66.7,77.9z"/>
	<path fill="#D06D42" d="M67,78c1,0.3,1.6,0.4,2.1,0.4c1,0,1.3-0.2,1.9-0.4c0,0-0.4,0.2-1.8,0.2C67.8,78.2,66.7,77.9,67,78z"/>
	<path fill="#F09D60" d="M68.4,78.9c1.1,0.2,1.2,0,1.8-0.2c0,0-0.2,0.7-1,0.6C68.8,79.2,68,78.8,68.4,78.9z"/>
	<path fill="#DE7C48" d="M63.6,73.2c-0.7,0-0.7,1.2-0.5,1.6c0,0,0.2-1.7,0.6-0.8L63.6,73.2z"/>
	<path fill="#015289" d="M66,67.6c-0.7-1.9,0.5-2,0.5-2c-0.7,0.1-1.5,0.5-1.1,2.1L66,67.6z"/>
	<path fill="#015289" d="M66.6,67.6c-0.8-2.2,0.1-2.3,3.4-2.4c0,0-4.1-0.1-2.4,2.6L66.6,67.6z"/>
	<path fill="#015289" d="M68.3,68c-1.4-2.6,1.4-2.3,3.6-2.3c0,0-5-0.5-2.8,2.5L68.3,68z"/>
	<path fill="#015289" d="M69.6,67.2c1.7-1.5,4,0,5.2,1.2c0,0-1.1-0.9-2.1-1.3C71.2,66.4,69.6,67.2,69.6,67.2z"/>
	<path fill="#015289" d="M64.7,68.1c-0.8-0.6-1.3-0.3-1.6,0.3c0,0,0-0.5,0.4-0.8C63.8,67.3,64.7,68.1,64.7,68.1z"/>
	<path fill="#FCFCFE" d="M290.8,67c0,0,13.3,4.5,17.5,15.3C309.1,84.1,308.5,79.1,290.8,67z"/>
	<path fill="#FCFCFE" d="M104.1,67.2c0,0-13.3,4.5-17.5,15.3C85.9,84.4,86.4,79.4,104.1,67.2z"/>
	<g>
		<g>
			<path fill="none" stroke="#823220" stroke-width="3.6246" stroke-miterlimit="10" d="M101.9,89.1c0-12.7,15-23.7,32.2-23.7
				c17.9,0,32.3,9.3,32.3,20.8c0,1.2-0.1,2.3-0.4,3.4c0,0.1,0,0.1-0.1,0.2"/>
			<path fill="none" stroke="#C99943" stroke-width="0.7249" stroke-miterlimit="10" d="M100.1,89.5c0-13.2,16.7-26.7,33.9-26.7
				c17.9,0,36.5,10.5,34.2,26.9"/>
			<g>
				<g>
					<path fill="#F3AF75" d="M117.1,64.1c0.6,1.6,3.8,9.9-1.4,19.1c-4.4,7.9,15.5,12,15.5,12s19.4-4.2,16.8-7.7
						c-4.3-6-5.9-12-5.1-23.3L117.1,64.1z"/>
					<path fill="#F3AF75" d="M150.7,41.4c1.2-0.2,2.4-0.6,3.6,0.9c2,2.6-1.7,11.8-4.4,11.9C148.7,54.3,150.7,41.4,150.7,41.4z"/>
					<path fill="#F09960" d="M109.8,40.1c-0.5,0.4-3.3,1.4-3,6.9c0.3,4.7,4.3,8,5.3,8.4c0.5,0.2-0.1-5.9-0.7-7.8
						C110.7,45.6,109.8,40.1,109.8,40.1z"/>
					<path fill="#F3AF75" d="M137.2,20.2c-3.2-0.5-3.7-0.8-8.9-0.5c-5.2,0.3-10.7,1.3-13.2,2.5c-2.5,1.2-3.4,3.4-3.7,5.3
						c-0.3,1.9-1.6,7.5-1.7,9.6c-0.2,2.1,1.6,26.4,2.6,27.9c3.7,5.4,11.8,7.7,17,7.7c5.5,0,14.4-3,18.8-7.7
						c1.3-1.4,1.7-12.7,1.9-13.5c0.3-1.6,1.8-13.1,2.1-14.3c0.2-1.2,2.7-8.9-1.3-11.4C146.7,23.4,137.6,20.3,137.2,20.2z"/>
					<path fill="#FAFAFC" d="M113.4,92.4c-0.9-0.1-23.3,3-24.2,4.6c-0.3,0.5-4.6,28-5.3,32c-0.1,0.7,11.4,2,13.4,0.7
						c1.4-0.9,9.1,55.6,9.1,55.6l52.5-0.6c0,0,4.7-61.4,5.2-60l-0.2,12.1l12-4.4l-14.2-36.4c-1.4-0.2-20.6-2.6-20.6-2.6l-6.7,1.4
						l-9.3,0.5L113.4,92.4z"/>
					<path fill="#DBDDDD" d="M145.8,89.5c3.7,6.8-2.9,15.4-2.9,15.4s-10.6-6.4-5.8-11.3C137.9,92.8,143.4,85.1,145.8,89.5z"/>
					<path fill="#DBDDDD" d="M125,95.2c0.9,1.4,6.8,2.1,6.2,2.7c-0.5,0.6-10.1,8.4-10.1,8.4C120.3,106.2,123.4,97.5,125,95.2z"/>
					<path fill="#DBDDDD" d="M126.4,94.1c0.9,1.4,10.5-0.6,10.7-0.6c0.8,0-1,2.9-1.5,3.2C135,97.2,129.3,102.8,126.4,94.1z"/>
					<path fill="#FAFAFC" d="M116.9,80.3c0.1-0.1,0.1,3.1,1.8,5.2c3.5,4.1,12,9,13.4,8.9c2.1-0.1,6.2-4.1,8.4-7.8
						c1.2-2.1,3.9-6.3,3.9-6.3c18.2,22-3.2,23.2-3.2,23.2s-1.1-8.5-8.8-9.1c0,0-0.5-0.1-1.1,0.1c-5.6,2.1-8.3,10.4-8.3,10.4
						S102.7,98.2,116.9,80.3z"/>
					<path fill="#DBDDDD" d="M97.3,118.4c0,0,1.3,65,1.1,66.5l8,0.1L97.3,118.4z"/>
					<polyline points="164.8,137.2 164.7,143.7 164.1,194.7 129.2,211.6 111.7,86.3 116.9,80.3 144.4,80.3 144.4,80.3 152.3,87.1 
						152.3,87.1 169.1,91 170.7,112.8 					"/>
					<polyline points="98,90.2 85.6,93.5 71.8,153.9 82.7,197.1 98.4,192.4 90.8,156.8 89.4,155 91.1,154.4 97.3,143.1 					"/>
					<path d="M116.9,80.3l-5.2,6l-23,6.4l8,16.3l-0.2,13.5l-12.6,18.9l12.4-5.7L96,157.8l-1,59.3c-2.6,0,34.3-3.9,35.1-4.4
						c0.7-0.5,2.7-75.1,2.7-75.1L114,85.9L116.9,80.3z"/>
					<path d="M172.3,92.6c1.4-0.2,18.7,45.8,18.8,48.2c0.1,2.4-2.8,66-4.3,65.6c-1.4-0.4-16.9-12.5-16.8-13.9
						c0.1-1.4,5.3-27,4.5-29.6c-0.8-2.6-0.7-8.2-0.7-8.2l3-0.5l-2.7-2l-14-24.8C160,127.3,164.3,94,172.3,92.6z"/>
					<path fill="#FFFFFF" d="M117.1,79.7c0-0.2,26.9,0,26.9,0l0.9,1.2h-28.3L117.1,79.7z"/>
					<path fill="#565454" d="M113.6,86.8h33.4c0,0-9.6,1.4-15.4,1.4C125.7,88.1,113.6,86.8,113.6,86.8z"/>
					<path fill="#F09960" d="M116.9,80.3c-1.6,5.8,23.9-18.6,21.2-22.4c-2.2-3.1-26.3-16.6-26.3-16.6c-0.1,0.5-3,7,0.2,22.8
						c0.7,3.3,5.6,5.6,6.4,6C118.5,70.1,119.4,71.3,116.9,80.3z"/>
					<path d="M107.5,24.1c0,0.4,0.4,10.3,1.1,12.5c0.6,1.8,1.9,13.6,2.1,12.5c0.1-1.1,6.1,17,7,16.9c2.6-0.3,20.7,0.5,23.7,0.5
						c1.2,0,9.3-16.9,9.4-17.8c0.8-5.9,2.8-18.5,3.1-21.7c0.9-7.8-10.7-14.4-21.8-16.2c-7.7-1.2-16.2,1.5-17.3,4.9
						C114.7,16.5,107.5,17.8,107.5,24.1z"/>
					<path fill="#015289" d="M144.3,17.2c0,0,5.5,5.8-1.5,8.6c2.6-1,10.2-2.8,4.9-7.6L144.3,17.2z"/>
					<path fill="#015289" d="M140,14.8c5.9,6.7,2.4,6.7-8.9,11.6c0,0,14.6-5.5,4.5-12.5L140,14.8z"/>
					<path fill="#015289" d="M133,13.2c8.6,7.1-3.4,8.2-11.3,11.1c0,0,18.1-5.4,6.2-12.8L133,13.2z"/>
					<path fill="#015289" d="M117.7,27.8c-2.4-3.6-7.7-6.3-8.9-4.1c0,0,0-2.1,1.4-3.2C113.7,17.9,117.7,27.8,117.7,27.8z"/>
				</g>
				<path fill="#F3AF75" d="M158.3,73.7c3-1.1,0.6-3.5,0.6-3.5l-4.5-3.3l6.2-0.9l4.2,3.1c0,0,1.3,1.5,2.3,1.9c1,0.4,3,3.5,3,3.5
					s1.9,2.9,1.8,4.4c-0.1,1.6-5.8,7.6-5.8,7.6l-9.1-0.6l-5.4-10.6l0.5-4.4l4.4,3.1"/>
				<path d="M156.4,84.4c2.9-0.5,11.7-3.5,14.6-0.5c1.4,1.5,11.8,34,11.8,34l-25.2-25.3L156.4,84.4z"/>
				<path fill="#FFFFFF" d="M155.7,83.2c3.2-1.6,13.4-3.2,14.3-1.3c0.9,2,0.9,2,0.9,2l-13.9,1.2L155.7,83.2z"/>
			</g>
			<path fill="#F3AF75" d="M105.5,80.1c2,0.1,1.8,5.5,1.7,5.7c-1,1.8-1,5.1-1,5.1l-10.8,5.5c0,0-1.6-4.1-2.2-5.5
				c-0.6-1.4-0.1-4.1-0.1-4.1l1.6-2.9l0.3-2.3l3.2-4.7l5.9-1c0,0-2.1,2.5-2.6,3.7c-0.2,0.5-1.2,1.9,1.1,3.1
				C103.8,83.4,105.5,80.1,105.5,80.1z"/>
		</g>
		<path fill="#F3AF75" d="M111.8,74.3c0.8,0.2,1.2,3.3,1.2,3.3s-4.8,0.6-4-0.3C109.7,76.3,111.8,74.3,111.8,74.3z"/>
	</g>
	<path fill="#3F4144" d="M89.9,136c0.4-38,85.5-44.9,85.5-2C175.4,144.7,89.8,145.3,89.9,136z"/>
	<path fill="#252733" d="M95.1,134.7c-0.1-23.2,71.4-35,75-0.2C171.2,144.4,95.2,143.4,95.1,134.7z"/>
	<path opacity="0.31" d="M27.6,260.3c26.1-1.6,344.1-2.5,344.1-2.5s18.7,45.6,16.2,67c-0.8,6.6-3.1,28-81.8,31.3
		c-34.7,1.5-234.6,0.8-241.4,0.4c-25.8-1.6-45.8-20.2-48.4-37.3c-4.2-27.4,8.8-60,8.8-60"/>
	<rect x="285.1" y="291.4" fill="#FCFCFE" width="12.4" height="15.9"/>
	<path fill="#1C1F24" d="M316.6,237.9c-1.6,54-10.3,96.1,24.8,90c27.5-4.8,37.6-19,37.6-89.8c0-51.4,5.2-71.4-22.2-71.4
		C336.3,166.6,318.1,186.5,316.6,237.9z"/>
	<path fill="#3F4144" d="M376.8,172.8c2.6,7.2,16.7,117.7-11.1,153.8c-2.5,3.2-45,11-46.4-7.6c0-0.4,3.4,5.6,7.2-3.4
		c5-11.7,12.2-25,14.3-76C342.8,192,376.8,172.8,376.8,172.8z"/>
	<path fill="#1C1F24" d="M83.1,237.8c1.6,54,10.3,96.1-24.8,90c-27.5-4.8-37.6-19-37.6-89.8c0-51.4-5.2-71.4,22.2-71.4
		C63.4,166.5,81.6,186.5,83.1,237.8z"/>
	<path fill="#3F4144" d="M23.8,172.7c-2.6,7.2-16.7,117.7,11.1,153.8c2.5,3.2,45,11,46.4-7.6c0-0.5-3.4,5.6-7.2-3.4
		c-5-11.7-12.2-25-14.3-76C57.8,191.9,23.8,172.7,23.8,172.7z"/>
	<path fill="#E2231A" d="M151.3,131.2c77.6,0.4,180.7-1.1,187.7-5.9c7.4-5.1,3.1-8.9,5.4-8.9c2.3,0,16.1,10.7,19.1,17.6
		c3.1,6.9,32.5,63.8,18.4,149.9c-1,5.9-217.2,7.7-235.5,6.1C127.9,288.4,118.2,131,151.3,131.2z"/>
	<path fill="#E2231A" d="M248.7,131.7c-72.9,1.2-178.3-1.8-185-6.4c-7.4-5.1-3.1-8.9-5.4-8.9c-2.3,0-16.1,10.7-19.1,17.6
		c-3.1,6.9-36.3,61.6-19.9,149.9c1.1,5.9,218.7,7.7,237.1,6.1C274.8,288.4,286.4,131.1,248.7,131.7z"/>
	<rect x="101" y="289.6" fill="#FCFCFE" width="12.4" height="15.9"/>
	<circle fill="#FCFCFE" cx="107.3" cy="305.5" r="6.2"/>
	<circle fill="#3F4144" cx="107.3" cy="305.5" r="5.5"/>
	<rect x="285.1" y="290.4" fill="#FCFCFE" width="12.4" height="15.9"/>
	<circle fill="#FCFCFE" cx="291.3" cy="306.3" r="6.2"/>
	<circle fill="#3F4144" cx="291.3" cy="306.3" r="5.5"/>
	<path d="M296.2,303.7c-0.9,1.7-2.8,2.9-4.9,2.9c-2.1,0-3.8-1.3-4.9-2.9c-0.1-0.1,1.7-2.9,4.9-2.9
		C294.4,300.7,296.2,303.7,296.2,303.7z"/>
	<path d="M112.1,303.7c-0.9,1.7-2.8,2.9-4.9,2.9c-2.1,0-3.8-1.3-4.9-2.9c-0.1-0.1,1.7-2.9,4.9-2.9
		C110.4,300.7,112.1,303.7,112.1,303.7z"/>
	<path fill="#991414" d="M21.3,181.3c13.1-41.7-5.2,35.5,28.6,35.5c17.3,0,16.1-31.1,31.4-31.5c15.3-0.4,3.9,76.3,125.4,76.3
		c95.5,0,93-77.2,112.7-76.6c10.5,0.3,14.8,31.5,25.8,32.1c31.4,1.6,13.5-84.7,31.5-45.1c14.3,31.5,16.1,101.1-3.2,118.5l-344.4,0
		C3.9,257.9,17,194.8,21.3,181.3z"/>
	<path fill="#FCFCFE" d="M14.8,264.9c0.3-0.1,0.3,6,4.5,6c2.4,0,360,0.3,362.8,0.3c5.4,0,5-6.4,5-6.4c10.1,5.3,10.1,21.2-14.9,25.2
		c-12,1.9-331.3,1.9-345.3,0.6C14,289.5-1.1,270.9,14.8,264.9z"/>
	<path fill="#A4A9AD" d="M12,282.2c3.4-0.6,374.5-0.8,378.9-0.8c0,0-4.1,7.7-18.8,8.9c-14.1,1.1-319.9,3.4-344.9,0.5
		C14.8,289.4,12,282.2,12,282.2z"/>
	<path fill="#FCFCFE" d="M60.8,213.7c0,5.9-4.8,10.7-10.7,10.7c-5.9,0-10.7-4.8-10.7-10.7c0-5.9,4.8-10.7,10.7-10.7
		C56,203,60.8,207.8,60.8,213.7z"/>
	<circle fill="#F43E14" cx="50.1" cy="216.7" r="10.1"/>
	<path fill="#CE2C11" d="M60.2,216.8c0,3.1-1.4,5.8-3.5,7.7c-1.8,1.5-4.1,2.5-6.6,2.5c-3.1,0-5.9-1.4-7.8-3.6
		c-1.5-1.8-2.4-4-2.4-6.5h9.9H60.2z"/>
	<circle fill="#FCFCFE" cx="50.8" cy="246.6" r="10.7"/>
	<circle fill="#F43E14" cx="50.8" cy="249.6" r="10.1"/>
	<path fill="#CE2C11" d="M60.9,249.7c0,3.1-1.4,5.8-3.5,7.7c-1.8,1.5-4.1,2.5-6.6,2.5c-3.1,0-5.9-1.4-7.8-3.6
		c-1.5-1.8-2.4-4-2.4-6.5h9.9H60.9z"/>
	<circle fill="#FCFCFE" cx="345.1" cy="212.8" r="10.7"/>
	
		<ellipse transform="matrix(-0.9711 -0.2385 0.2385 -0.9711 624.1662 364.1075)" fill="#3F4144" cx="334.1" cy="144.3" rx="10.7" ry="6.6"/>
	<circle fill="#F43E14" cx="345.1" cy="215.8" r="10.1"/>
	<path fill="#CE2C11" d="M335,215.9c0,3.1,1.4,5.8,3.5,7.7c1.8,1.5,4.1,2.5,6.6,2.5c3.1,0,5.9-1.4,7.8-3.6c1.5-1.8,2.4-4,2.4-6.5
		h-9.9H335z"/>
	<circle fill="#FCFCFE" cx="345.5" cy="245.7" r="10.7"/>
	<circle fill="#F43E14" cx="345.5" cy="248.7" r="10.1"/>
	<path fill="#CE2C11" d="M335.4,248.8c0,3.1,1.4,5.8,3.5,7.7c1.8,1.5,4.1,2.5,6.6,2.5c3.1,0,5.9-1.4,7.8-3.6c1.5-1.8,2.4-4,2.4-6.5
		h-9.9H335.4z"/>
	<path fill="#FCFCFE" d="M201.5,192.3c0,0-8.6,42.4-4.8,45.9c3.8,3.5,7,2.2,10.3,0C210.3,236.1,201.5,192.3,201.5,192.3z"/>
	<path fill="#A4A9AD" d="M201.7,192.6c0,0-1.6,48.1-0.1,48.1c1.9,0,3.8-0.9,5.6-2.2C210.5,236.4,201.7,192.6,201.7,192.6z"/>
	<path fill="#FCFCFE" d="M94.5,172.8c0,0-6.4-27-3.6-29.3c2.8-2.2,5.2-1.4,7.7,0C101.1,144.9,94.5,172.8,94.5,172.8z"/>
	<path fill="#FCFCFE" d="M306.4,172.8c0,0-6.4-27-3.6-29.3c2.8-2.2,5.2-1.4,7.7,0C312.9,144.9,306.4,172.8,306.4,172.8z"/>
	<path fill="#A4A9AD" d="M306.4,172.8l-0.1-30.6c1.5,0,2.8,0.6,4.2,1.4C312.9,144.9,306.4,172.8,306.4,172.8z"/>
	<path fill="#A4A9AD" d="M94.5,172.8l0.2-30.6c1.5,0,2.8,0.6,4.2,1.4C101.4,144.9,94.5,172.8,94.5,172.8z"/>
	<path fill="#A4A9AD" d="M285.1,298.4c0-6.2,12.4-6.2,12.4,0c0,6.4,0-9.3,0-11c0-1.6-12.2-2-12.4,0
		C284.9,289.4,285.1,298.4,285.1,298.4z"/>
	<path fill="#A4A9AD" d="M101.1,298.6c0-6.2,12.4-6.2,12.4,0c0,6.4,0-9.3,0-11c0-1.6-12.2-2-12.4,0
		C100.9,289.6,101.1,298.6,101.1,298.6z"/>
	
		<ellipse transform="matrix(-0.9712 -0.2384 0.2384 -0.9712 627.07 356.4317)" fill="#FCFCFE" cx="335.1" cy="140.3" rx="10.7" ry="6.6"/>
	<path fill="#A4A9AD" d="M327.9,138.2c0.5-1.6,15.4,2.5,14.9,4.3L327.9,138.2z"/>
	<path fill="#E2231A" d="M67.6,129c26.5-10.2,234.5-12.6,261.2-1.9c12.3,4.9-101.5,7.9-126.1,8C144.2,135.3,67.6,129,67.6,129z"/>
</g>
<g id="Layer_2">
</g>
</svg>
